<svg width="33" height="21" viewBox="0 0 33 21" fill="none" xmlns="http://www.w3.org/2000/svg">
<path d="M26.0945 4.95289C26.6844 4.96263 27.2656 5.04279 27.8367 5.19526C28.3542 5.3461 28.8486 5.55653 29.3191 5.82731C30.0439 6.25705 30.6455 6.87908 31.0612 7.62843C31.2965 8.06633 31.4843 8.50454 31.6726 8.94244C31.7729 9.2519 31.8505 9.56811 31.907 9.89052C32.1174 10.8411 32.1661 11.8267 32.0023 12.787L31.9552 13.0817C31.9317 13.2714 31.9308 13.2594 31.884 13.4685C31.8369 13.6787 31.5304 13.7351 31.3186 13.7351H23.0125C23.0972 14.5329 23.3642 15.1924 23.9755 15.8523C24.8945 16.8444 26.0699 16.8404 27.2184 16.9168C28.3669 16.9931 29.5173 16.7797 30.5671 16.2919C30.7543 16.2919 30.8471 16.2912 30.8475 16.4843V19.2359C30.8472 19.673 30.6831 19.7221 30.3303 19.8679L29.4846 20.1341C29.2154 20.2161 28.9384 20.2739 28.6595 20.3052C28.0712 20.3052 27.4826 20.4757 26.8943 20.5H25.4579C24.9875 20.5 24.4935 20.4991 24.0467 20.3289C22.7488 20.0609 21.5648 19.3806 20.659 18.3829C20.0843 17.7685 19.6346 17.0404 19.3397 16.242C19.1017 15.6593 18.9428 15.0449 18.8686 14.4171C18.8348 13.7039 18.8348 12.9894 18.8686 12.2762C18.9039 11.3982 19.0646 10.5299 19.3397 9.69805C19.5712 9.0055 19.8964 8.34829 20.305 7.74961C20.8412 6.91454 21.57 6.23035 22.4241 5.75603C22.7925 5.53563 23.1758 5.34764 23.5756 5.19526C24.0101 5.08836 24.4514 5.00808 24.8948 4.95289C25.2947 4.9286 25.6946 4.92857 26.0945 4.95289ZM10.8681 0.5C11.2435 0.5 11.2198 0.500037 11.337 0.86355C11.4546 1.22853 11.7623 2.05694 11.9506 2.64091C12.1388 3.22469 12.303 3.66322 12.4677 4.14976L13.0331 5.72989L13.5985 7.43359C13.8337 8.09014 14.0671 8.72313 14.2788 9.37965L14.8925 11.1332C15.0806 11.7168 15.2922 12.3004 15.5038 12.9082C15.7156 13.5163 15.7874 13.8083 15.952 14.246C16.1167 14.684 16.2808 15.2207 16.4691 15.7073C16.6572 16.1935 16.7757 16.6307 16.9403 17.0926L17.6229 19.0648L17.9033 19.9155C17.9974 19.8911 17.9278 20.0865 17.7631 20.0866H13.8513C13.8197 20.0816 13.7886 20.0724 13.7594 20.058C13.6998 20.0285 13.6501 19.9793 13.6169 19.9202C13.5949 19.8815 13.5791 19.8388 13.5732 19.7943C13.385 19.1862 13.1731 18.6013 12.9849 17.9932C12.7966 17.3851 12.5139 16.6073 12.3023 15.9022C12.3023 15.513 11.9973 15.4626 11.6679 15.4626H5.73594C5.47811 15.4626 5.47807 15.464 5.38429 15.7548C5.2902 16.0467 5.1485 16.5579 5.00737 16.9714L4.63044 18.2379L4.1363 19.7206C4.14893 19.7846 4.14883 19.8515 4.1363 19.9155C4.1363 20.2316 3.76032 20.184 3.52495 20.184H0.488854C0.136019 20.184 0.0170365 20.0134 0.157895 19.6731C0.299104 19.3325 0.417146 18.9421 0.534821 18.6015L1.02896 17.0451L1.94829 14.3695C2.20705 13.64 2.44163 12.8851 2.67686 12.1312C2.91221 11.3769 3.12412 10.8397 3.35947 10.1828L3.85361 8.65017L4.72467 6.217L5.43026 4.0761C5.66552 3.39507 5.90111 2.71418 6.11286 2.00885C6.14591 1.6773 6.14589 1.34243 6.11286 1.01087C6.11286 0.500091 6.11331 0.5 6.607 0.5H10.8681ZM6.62999 11.5705H11.337L8.98347 4.27094L6.62999 11.5705ZM26.2117 8.16306C25.7834 8.09052 25.3461 8.09049 24.9178 8.16306C24.6006 8.22692 24.3002 8.36453 24.0398 8.56225C23.8647 8.69534 23.7093 8.85352 23.5802 9.03273C23.4793 9.15426 23.3924 9.28789 23.3181 9.42955C23.0798 9.86655 22.9198 10.3449 22.847 10.841H27.8137C28.0381 10.841 28.1111 10.8401 28.0964 10.5416C28.0995 10.4985 28.0987 10.4442 28.0941 10.3776C28.0858 10.1803 28.0539 9.98497 27.9998 9.79547C27.8693 9.3841 27.6358 9.01506 27.3218 8.72859C27.0074 8.44198 26.6233 8.24548 26.2117 8.16306Z" fill="white"/>
</svg>
