<svg width="28" height="23" viewBox="0 0 28 23" fill="none" xmlns="http://www.w3.org/2000/svg">
<path d="M13.4 7.96134V2.40845L3.51411 7.96134L14.3 14.017L25.0842 7.96134L15.2 2.40845V7.96134C15.2 8.44988 14.7971 8.84593 14.3 8.84593C13.803 8.84593 13.4 8.44988 13.4 7.96134ZM27.8 15.0381C27.8 15.5266 27.3971 15.9227 26.9 15.9227C26.403 15.9227 26 15.5266 26 15.0381V9.48518L15.2 15.5512V22.1148C15.2 22.6033 14.7971 22.9994 14.3 22.9994C13.803 22.9994 13.4 22.6033 13.4 22.1148V15.5512L2.60005 9.48518V15.0381C2.60005 15.5266 2.19711 15.9227 1.70005 15.9227C1.20299 15.9227 0.800049 15.5266 0.800049 15.0381V7.96134C0.800049 7.6439 0.973147 7.35 1.25356 7.1925L13.8536 0.115771L13.9608 0.0656673C14.2147 -0.03597 14.5047 -0.0198936 14.7465 0.115771L27.3465 7.1925C27.627 7.35 27.8 7.6439 27.8 7.96134V15.0381Z" fill="white"/>
<path d="M13.9608 7.14243C14.2147 7.04079 14.5047 7.05687 14.7465 7.19253L27.3465 14.2693C27.627 14.4268 27.8 14.7206 27.8 15.0381C27.8 15.3555 27.627 15.6494 27.3465 15.8069L14.7465 22.8837C14.47 23.0388 14.1301 23.0388 13.8536 22.8837L1.25356 15.8069C0.973147 15.6494 0.800049 15.3555 0.800049 15.0381C0.800049 14.7206 0.973147 14.4268 1.25356 14.2693L13.8536 7.19253L13.9608 7.14243ZM3.51411 15.0381L14.3 21.0937L25.0842 15.0381L14.3 8.98072L3.51411 15.0381Z" fill="white"/>
</svg>
