<svg width="28" height="27" viewBox="0 0 28 27" fill="none" xmlns="http://www.w3.org/2000/svg">
<path fill-rule="evenodd" clip-rule="evenodd" d="M0.83173 0.337486C0.922262 0.231645 1.03465 0.146672 1.16116 0.0884129C1.28767 0.0301535 1.4253 -9.1346e-06 1.56458 2.84609e-08H26.6356C26.775 -3.38309e-05 26.9127 0.030144 27.0393 0.0884547C27.1659 0.146765 27.2783 0.231823 27.3689 0.337768C27.4594 0.443713 27.5259 0.568028 27.5638 0.702148C27.6017 0.836269 27.61 0.977007 27.5883 1.11467L24.6955 19.4353C24.6754 19.5634 24.6297 19.6861 24.5611 19.7961C24.4925 19.9062 24.4024 20.0012 24.2963 20.0756L14.6536 26.8253C14.4914 26.939 14.2981 27 14.1001 27C13.902 27 13.7088 26.939 13.5466 26.8253L3.90389 20.0756C3.79773 20.0012 3.70766 19.9062 3.63906 19.7961C3.57047 19.6861 3.52477 19.5634 3.50469 19.4353L0.611877 1.11467C0.590148 0.976933 0.598551 0.836124 0.636507 0.70195C0.674463 0.567776 0.741068 0.44343 0.83173 0.337486ZM8.70017 4.74988C8.3805 4.74988 8.07392 4.87686 7.84787 5.1029C7.62183 5.32894 7.49484 5.63552 7.49484 5.95519C7.49484 6.27485 7.62183 6.58143 7.84787 6.80747C8.07392 7.03351 8.3805 7.16049 8.70017 7.16049H15.2958L10.2237 10.3309C10.0009 10.4693 9.82928 10.6765 9.73488 10.9212C9.64049 11.1658 9.62848 11.4346 9.70067 11.6868C9.77287 11.9389 9.92532 12.1606 10.1349 12.3182C10.3445 12.4759 10.5998 12.5608 10.8621 12.5603H17.2166V16.1511L14.1001 18.4846L10.5034 15.7905C10.2476 15.5987 9.92616 15.5163 9.6097 15.5616C9.29323 15.6068 9.00769 15.7758 8.81589 16.0316C8.62408 16.2873 8.54172 16.6087 8.58693 16.9252C8.63214 17.2417 8.80121 17.5272 9.05695 17.719L13.3769 20.9589C13.5855 21.1153 13.8393 21.1999 14.1001 21.1999C14.3609 21.1999 14.6146 21.1153 14.8233 20.9589L19.1432 17.719C19.2924 17.6062 19.4135 17.4605 19.4971 17.2933C19.5807 17.126 19.6246 16.9417 19.6254 16.7547V11.355C19.6248 11.0356 19.4976 10.7296 19.2716 10.5039C19.0456 10.2783 18.7394 10.1516 18.42 10.1516H15.0644L20.1364 6.97921C20.3582 6.84061 20.5289 6.63365 20.6227 6.38954C20.7165 6.14544 20.7284 5.87744 20.6566 5.62599C20.5847 5.37454 20.433 5.15327 20.2244 4.99558C20.0158 4.83789 19.7615 4.75233 19.5 4.75181L8.70017 4.74988Z" fill="white"/>
</svg>
