<svg width="32" height="26" viewBox="0 0 32 26" fill="none" xmlns="http://www.w3.org/2000/svg">
<path d="M32 5.74437V21.125C32.0001 22.3685 31.5323 23.565 30.6923 24.4697C29.8524 25.3744 28.7038 25.9189 27.4816 25.9919L27.2 26H4.8C3.57566 26.0001 2.39758 25.525 1.50678 24.6719C0.615989 23.8189 0.079828 22.6523 0.00800018 21.411L0 21.125V5.74437L15.112 15.977L15.2976 16.0842C15.5163 16.1928 15.7566 16.2492 16 16.2492C16.2434 16.2492 16.4837 16.1928 16.7024 16.0842L16.888 15.977L32 5.74437Z" fill="white"/>
<path d="M27.2 0C28.928 0 30.4432 0.92625 31.288 2.31888L16 12.6701L0.712 2.31888C1.11327 1.65721 1.66446 1.10256 2.31964 0.70117C2.97481 0.299778 3.71496 0.063273 4.4784 0.011375L4.8 0H27.2Z" fill="white"/>
</svg>
