<svg width="20" height="27" viewBox="0 0 20 27" fill="none" xmlns="http://www.w3.org/2000/svg">
<path d="M11.219 0V18.6014H6.01042C4.62895 18.6014 3.30304 18.0636 2.32617 17.1073C1.3493 16.1508 0.800049 14.8527 0.800049 13.5002C0.800219 12.1479 1.34958 10.8511 2.32617 9.89486C2.55243 9.67334 2.79874 9.47579 3.05872 9.30071C2.79868 9.12559 2.55248 8.92812 2.32617 8.70656C1.34945 7.75022 0.800252 6.45364 0.800049 5.10124C0.800049 3.74851 1.34918 2.45069 2.32617 1.49416C3.30317 0.537634 4.62875 0 6.01042 0H11.219ZM2.63858 13.5002C2.63858 14.3753 2.994 15.2157 3.62608 15.8346C4.25815 16.4534 5.11656 16.8014 6.01042 16.8014H9.38047V10.2007H6.01042C5.11653 10.2007 4.25815 10.5487 3.62608 11.1675C2.99427 11.7862 2.63875 12.6253 2.63858 13.5002ZM2.63858 5.10124C2.63879 5.97624 2.99414 6.81512 3.62608 7.43389C4.25827 8.05284 5.11636 8.4007 6.01042 8.4007H9.38047V1.80002H6.01042C5.11636 1.80002 4.25827 2.14788 3.62608 2.76683C2.99388 3.38579 2.63858 4.2259 2.63858 5.10124Z" fill="white"/>
<path d="M9.3793 18.6028L6.01042 18.6014C5.34305 18.6015 4.68997 18.7946 4.13661 19.1565C3.58276 19.5189 3.15108 20.0342 2.89596 20.6366C2.64083 21.2395 2.57389 21.9038 2.70385 22.5439C2.83381 23.1839 3.15544 23.7716 3.6267 24.2331C4.09794 24.6946 4.69847 25.0093 5.35212 25.1367C6.00567 25.264 6.68269 25.1981 7.29838 24.9486C7.91427 24.699 8.44147 24.2764 8.81194 23.7339C9.18201 23.1917 9.37895 22.5544 9.3793 21.9023V18.6028ZM17.9615 13.5016C17.9615 12.6264 17.606 11.7861 16.974 11.1672C16.3418 10.5482 15.4837 10.2003 14.5897 10.2003C13.6956 10.2003 12.8375 10.5482 12.2053 11.1672C11.5734 11.7861 11.2178 12.6264 11.2178 13.5016C11.218 14.3764 11.5736 15.2155 12.2053 15.8342C12.8375 16.4532 13.6956 16.801 14.5897 16.801C15.4837 16.801 16.3418 16.4532 16.974 15.8342C17.6057 15.2155 17.9613 14.3764 17.9615 13.5016ZM19.8 13.5016C19.7998 14.8538 19.2504 16.1506 18.2739 17.1069C17.2969 18.0634 15.9713 18.601 14.5897 18.601C13.3487 18.601 12.1563 18.1643 11.2178 17.3829V21.9023C11.2175 22.9106 10.9122 23.8958 10.3399 24.7341C9.76731 25.5726 8.95404 26.2275 8.0022 26.6133C7.0505 26.999 6.00323 27.0984 4.99304 26.9015C3.9827 26.7046 3.05334 26.2191 2.32501 25.5058C1.59713 24.7928 1.10212 23.8842 0.901222 22.8954C0.700405 21.9064 0.803389 20.8809 1.19747 19.9493C1.59164 19.0178 2.25884 18.2209 3.115 17.6606C3.97225 17.0999 4.98133 16.8015 6.01042 16.8014L10.6253 16.8028C9.82694 15.884 9.37948 14.7167 9.3793 13.5016C9.3793 12.149 9.92868 10.851 10.9054 9.89448C11.8824 8.93796 13.208 8.40032 14.5897 8.40032C15.9713 8.40032 17.2969 8.93796 18.2739 9.89448C19.2507 10.851 19.8 12.149 19.8 13.5016Z" fill="white"/>
<path d="M17.9605 5.10124C17.9605 4.22599 17.6051 3.38577 16.973 2.76683C16.3408 2.14788 15.4827 1.80002 14.5887 1.80002H11.2186V8.4007L14.5897 8.40032C15.4837 8.40032 16.3408 8.05284 16.973 7.43389C17.6048 6.81514 17.9603 5.97616 17.9605 5.10124ZM19.799 5.10124C19.7988 6.45355 19.2495 7.75024 18.2729 8.70656C17.2959 9.66309 15.9713 10.2003 14.5897 10.2003L9.38047 10.2007L9.38009 0H14.5887C15.9703 0 17.2959 0.537634 18.2729 1.49416C19.2498 2.45067 19.799 3.74859 19.799 5.10124Z" fill="white"/>
</svg>
