<svg width="30" height="32" viewBox="0 0 30 32" fill="none" xmlns="http://www.w3.org/2000/svg">
<path d="M8.16847 0.527217C9.31521 0.932467 10.4058 1.49465 11.4119 2.19916C12.8336 1.81805 14.2957 1.62686 15.7633 1.63012C17.2789 1.63012 18.7411 1.82833 20.1117 2.19756C21.1174 1.49373 22.2075 0.932095 23.3536 0.527217C24.4174 0.148392 25.933 -0.465399 26.8336 0.578366C27.4441 1.28806 27.5967 2.47728 27.7051 3.38518C27.8272 4.39858 27.8562 5.71887 27.5357 7.02957C28.7613 8.68712 29.5 10.6644 29.5 12.819C29.5 16.083 27.8119 18.917 25.3134 20.8798C24.1103 21.8116 22.7769 22.5427 21.3603 23.0473C21.6869 23.8305 21.8685 24.6968 21.8685 25.6063V30.4016C21.8685 30.8255 21.7077 31.2321 21.4215 31.5318C21.1352 31.8316 20.747 32 20.3422 32H11.1844C10.7796 32 10.3914 31.8316 10.1052 31.5318C9.81894 31.2321 9.65813 30.8255 9.65813 30.4016V28.8176C8.20052 29.0046 6.97796 28.8383 5.93855 28.3764C4.85182 27.8937 4.09478 27.1456 3.52547 26.4295C2.98516 25.7518 2.39601 24.2237 1.54434 23.9264C1.35412 23.8601 1.17825 23.7552 1.02675 23.6177C0.875254 23.4801 0.751105 23.3127 0.66139 23.125C0.480202 22.7458 0.450275 22.3067 0.578191 21.9044C0.706108 21.5021 0.98139 21.1695 1.34348 20.9797C1.70557 20.79 2.1248 20.7587 2.50896 20.8926C3.52547 21.2475 4.18788 22.0147 4.64119 22.6317C5.37382 23.6227 5.96907 24.9174 7.12906 25.4337C7.60679 25.6463 8.30736 25.7854 9.40324 25.6287L9.65813 25.5744C9.66165 24.7046 9.8346 23.8447 10.1664 23.0473C8.74979 22.5427 7.4163 21.8116 6.21328 20.8798C3.71473 18.917 2.02665 16.0846 2.02665 12.819C2.02665 10.6676 2.76385 8.69192 3.98641 7.03596C3.66589 5.72526 3.69336 4.40177 3.81547 3.38678L3.8231 3.32604C3.93452 2.39576 4.06425 1.30085 4.68698 0.578366C5.5875 -0.465399 7.10464 0.149991 8.16694 0.528815L8.16847 0.527217Z" fill="white"/>
</svg>
