<svg width="32" height="30" viewBox="0 0 32 30" fill="none" xmlns="http://www.w3.org/2000/svg">
<path d="M6.71564 3.33482C6.71519 4.21882 6.36099 5.06644 5.73097 5.69122C5.10094 6.31599 4.24669 6.66674 3.35614 6.6663C2.46559 6.66586 1.61169 6.31426 0.982295 5.68886C0.352897 5.06346 -0.000444854 4.21549 4.20334e-07 3.33148C0.000445695 2.44748 0.354642 1.59985 0.98467 0.975078C1.6147 0.350304 2.46895 -0.000441586 3.3595 4.17246e-07C4.25005 0.00044242 5.10394 0.352036 5.73334 0.977435C6.36274 1.60283 6.71608 2.45081 6.71564 3.33482ZM6.81637 9.13449H0.100735V30H6.81637V9.13449ZM17.4271 9.13449H10.745V30H17.3599V19.0506C17.3599 12.9509 25.3683 12.3843 25.3683 19.0506V30H32V16.7841C32 6.50131 20.1469 6.88462 17.3599 11.9343L17.4271 9.13449Z" fill="white"/>
</svg>
