<svg width="32" height="33" viewBox="0 0 32 33" fill="none" xmlns="http://www.w3.org/2000/svg">
<path d="M31.9963 27.5486C31.7819 28.4734 31.2763 29.3042 30.5546 29.9179C29.7488 30.7406 28.787 31.393 27.7259 31.8364C26.6649 32.2799 25.5261 32.5055 24.3768 32.4999H23.802C21.4164 32.3751 19.0783 31.7826 16.9194 30.756C16.3961 30.5094 15.8871 30.2789 15.2819 29.9984C12.7518 28.5639 10.4295 26.7879 8.38002 24.7199C5.71585 22.2115 3.53269 19.2336 1.93894 15.9342C1.06153 14.1343 0.470508 12.2074 0.18739 10.2238C-0.208152 8.15667 0.0256997 6.01789 0.85847 4.08617C1.37649 3.20919 2.01053 2.40675 2.74327 1.70076C3.07797 1.33421 3.4827 1.03901 3.93337 0.832723C4.38405 0.626436 4.87146 0.513284 5.36659 0.5C5.90649 0.557293 6.42956 0.722242 6.90512 0.985174C7.38068 1.2481 7.79915 1.60372 8.136 2.03117C8.89056 2.86929 9.77356 3.67517 10.5763 4.5294L11.6102 5.55126C12.2203 6.08797 12.5976 6.84389 12.6586 7.65622C12.6602 8.40408 12.3856 9.12453 11.8879 9.68059C11.5745 10.0705 11.2412 10.4439 10.8894 10.7992L10.5442 11.1618C10.3432 11.3493 10.1863 11.5795 10.085 11.8355C10.0015 12.0837 9.97264 12.3481 10.0047 12.6092C10.268 13.3248 10.6806 13.9759 11.2169 14.5175C12.0517 15.6522 12.8544 16.6402 13.7567 17.8087C15.3128 19.6112 17.1577 21.1402 19.2152 22.3329C19.4127 22.4941 19.6487 22.6021 19.9024 22.6456C20.1271 22.6794 20.3535 22.6456 20.5574 22.5457C21.1826 22.2097 21.7387 21.758 22.1966 21.2144C22.7745 20.4987 23.6126 20.0442 24.5245 19.9459C24.9622 19.9475 25.3951 20.0372 25.7977 20.2097C26.2003 20.3822 26.5644 20.6339 26.8684 20.95C27.243 21.2745 27.5979 21.62 27.9329 21.9864L28.4241 22.5134L28.9331 23.0066C29.2429 23.3193 29.5383 23.5998 29.8321 23.9286C30.3673 24.3906 30.865 24.8897 31.3252 25.4259C31.7956 26.0287 32.0332 26.783 31.9963 27.5486Z" fill="white"/>
</svg>
