<svg width="28" height="21" viewBox="0 0 28 21" fill="none" xmlns="http://www.w3.org/2000/svg">
<path d="M19.4699 5.29462C20.8812 4.79623 22.3879 4.66236 23.8596 4.90484C24.5616 4.9049 25.2417 5.17949 25.9437 5.317C26.2699 5.317 26.4119 5.56191 26.4277 5.88394V8.70749C26.4277 9.21166 26.3165 9.25822 25.8776 9.07489C24.5073 8.4125 22.9927 8.143 21.4897 8.29534C21.2768 8.3212 21.0693 8.38447 20.8754 8.47997C20.7439 8.53389 20.6282 8.6224 20.5396 8.73733C20.4512 8.85221 20.3922 8.98905 20.37 9.13457C20.3478 9.28044 20.3627 9.43099 20.4128 9.5691C20.463 9.70705 20.5466 9.82964 20.6557 9.92345C21.2905 10.3648 21.9561 10.7463 22.6523 11.0685C23.4862 11.5039 24.3639 11.848 25.1758 12.3292C25.9126 12.6794 26.524 13.266 26.9188 14.004C27.3133 14.7416 27.4712 15.592 27.3706 16.4303C27.3013 17.2669 27.0033 18.0657 26.5134 18.7316C26.0235 19.3975 25.3622 19.9045 24.6061 20.19L24.6275 20.2814C22.7191 21.0579 20.6289 21.2089 18.6359 20.716C18.0377 20.5785 17.4521 20.3949 16.8803 20.1658C16.7924 20.1226 16.7142 20.0586 16.6535 19.9793C16.5931 19.9002 16.5513 19.8076 16.5303 19.7089V16.2475C17.2322 16.5224 17.8898 16.8446 18.5698 17.0737C19.7099 17.4542 20.9182 17.5638 22.1041 17.3945C22.341 17.3486 22.568 17.272 22.7845 17.1651C22.9127 17.1064 23.0238 17.0134 23.1077 16.8965C23.1916 16.7794 23.2453 16.6406 23.2631 16.4956C23.2808 16.3504 23.2626 16.2021 23.2095 16.0666C23.1563 15.9311 23.0698 15.8121 22.9595 15.7216C22.4575 15.3587 21.9206 15.0506 21.3576 14.804C20.4579 14.3457 19.5363 13.979 18.6805 13.4519C17.9079 13.0595 17.2775 12.4171 16.8821 11.6206C16.4868 10.8238 16.3471 9.91392 16.4857 9.02827C16.5974 8.17621 16.9367 7.37421 17.4643 6.71385C17.992 6.05346 18.6871 5.56204 19.4699 5.29462ZM7.81694 0C9.0707 0.03548 10.2954 0.407199 11.3727 1.07795C12.3028 1.62538 13.0778 2.42093 13.6175 3.38304C14.1569 4.3449 14.442 5.43881 14.4444 6.55347C14.5713 7.75212 14.3762 8.96503 13.88 10.054C13.3838 11.1428 12.6058 12.0659 11.6352 12.719C10.5278 13.4533 9.25878 13.8786 7.9491 13.9555H5.00774C4.39424 13.9555 4.39339 13.9565 4.39339 14.5747V19.8917C4.39339 20.3499 4.26248 20.4865 3.8237 20.4866H0.926984C0.510029 20.4866 0.400146 20.3265 0.400146 19.914V0.594922C0.400147 0.137417 0.40051 5.97062e-05 0.948415 0H7.81694ZM8.367 3.9649C7.14002 3.65136 5.86839 3.56634 4.61306 3.71313C4.52523 3.71424 4.37211 3.98754 4.37196 4.14767V9.99245C4.37202 10.2211 4.39446 10.4266 4.70057 10.427C5.89341 10.4921 7.08929 10.3457 8.23484 9.99245C8.88403 9.83254 9.45911 9.43948 9.86 8.8828C10.2609 8.32595 10.4629 7.63907 10.4297 6.94324C10.4624 6.27569 10.2744 5.61622 9.89929 5.07455C9.52432 4.53325 8.98395 4.14169 8.367 3.9649Z" fill="white"/>
</svg>
