<svg width="28" height="21" viewBox="0 0 28 21" fill="none" xmlns="http://www.w3.org/2000/svg">
<path fill-rule="evenodd" clip-rule="evenodd" d="M2.27687 0.5H0.199951V20.5H4.3538V14.5H7.46918C8.42379 14.5 9.36905 14.3189 10.251 13.9672C11.1329 13.6154 11.9343 13.0998 12.6093 12.4497C13.2843 11.7997 13.8198 11.0281 14.1851 10.1788C14.5504 9.3295 14.7384 8.41925 14.7384 7.5C14.7384 6.58075 14.5504 5.6705 14.1851 4.82122C13.8198 3.97194 13.2843 3.20026 12.6093 2.55025C11.9343 1.90024 11.1329 1.38463 10.251 1.03284C9.36905 0.681061 8.42379 0.5 7.46918 0.5H2.27687ZM7.46918 10.5H4.3538V4.5H7.46918C8.29543 4.5 9.08784 4.81607 9.67209 5.37868C10.2563 5.94129 10.5846 6.70435 10.5846 7.5C10.5846 8.29565 10.2563 9.05871 9.67209 9.62132C9.08784 10.1839 8.29543 10.5 7.46918 10.5ZM17.8538 5.5V20.5H22.0076V12C22.3927 11.3343 22.9402 10.7687 23.6027 10.352C24.3857 9.868 25.5156 9.5 27.2 9.5V5.5C25.1729 5.5 23.447 5.892 22.0076 6.62V5.5H17.8538Z" fill="white"/>
</svg>
