<svg width="28" height="27" viewBox="0 0 28 27" fill="none" xmlns="http://www.w3.org/2000/svg">
<path d="M0.65706 9.41534C0.65706 9.41534 -0.000638354 8.93614 0.788599 8.29632L2.6271 6.63451C2.6271 6.63451 3.15326 6.07501 3.70942 6.56249L20.6761 19.5468V25.7731C20.6761 25.7731 20.6679 26.7509 19.4265 26.6428L0.65706 9.41534Z" fill="white"/>
<path d="M5.03023 13.4286L0.65706 17.4474C0.65706 17.4474 0.207575 17.7853 0.65706 18.3892L2.68738 20.2559C2.68738 20.2559 3.16965 20.7794 3.88207 20.1838L8.51832 16.6304L5.03023 13.4286Z" fill="white"/>
<path d="M12.7079 13.4619L20.7282 7.27152L20.6761 1.07848C20.6761 1.07848 20.3335 -0.273183 19.1909 0.430377L8.51832 10.2489L12.7079 13.4619Z" fill="white"/>
<path d="M19.4265 26.6512C19.8924 27.1331 20.4569 26.9753 20.4569 26.9753L26.707 23.8621C27.5071 23.3109 27.3947 22.6269 27.3947 22.6269V4.03649C27.3947 3.21935 26.5672 2.937 26.5672 2.937L21.1502 0.297416C19.9664 -0.442088 19.1909 0.430377 19.1909 0.430377C19.1909 0.430377 20.1883 -0.295226 20.6761 1.07848V25.6596C20.6767 25.8272 20.6402 25.9929 20.5693 26.1444C20.4268 26.4351 20.1171 26.7065 19.3746 26.593L19.4265 26.6512Z" fill="white"/>
</svg>
