<svg width="28" height="27" viewBox="0 0 28 27" fill="none" xmlns="http://www.w3.org/2000/svg">
<path d="M13.7 0C6.26145 0 0.199951 6.0615 0.199951 13.5C0.199951 20.9385 6.26145 27 13.7 27C21.1385 27 27.2 20.9385 27.2 13.5C27.2 6.0615 21.1385 0 13.7 0ZM1.56345 13.5C1.56345 11.745 1.94145 10.071 2.61645 8.559L8.40795 24.4215C4.35795 22.4505 1.56345 18.306 1.56345 13.5ZM13.7 25.6365C12.512 25.6365 11.3645 25.461 10.271 25.137L13.916 14.553L17.642 24.7725C17.669 24.8265 17.6959 24.894 17.7229 24.9345C16.4674 25.3935 15.1175 25.6365 13.7 25.6365ZM15.374 7.803C16.103 7.7625 16.7645 7.6815 16.7645 7.6815C17.4125 7.6005 17.345 6.642 16.6835 6.6825C16.6835 6.6825 14.7125 6.831 13.4435 6.831C12.2555 6.831 10.244 6.6825 10.244 6.6825C9.59595 6.6555 9.51495 7.6545 10.1765 7.695C10.1765 7.695 10.7975 7.776 11.4455 7.8165L13.3355 13.0005L10.676 20.9655L6.26145 7.803C6.99045 7.776 7.65195 7.695 7.65195 7.695C8.29995 7.614 8.23245 6.6555 7.57095 6.696C7.57095 6.696 5.59995 6.8445 4.33095 6.8445C4.10145 6.8445 3.83145 6.8445 3.54795 6.831C5.73495 3.537 9.46095 1.3635 13.7 1.3635C16.859 1.3635 19.7345 2.565 21.8945 4.5495C21.8405 4.5495 21.7865 4.536 21.7325 4.536C20.5445 4.536 19.694 5.5755 19.694 6.696C19.694 7.695 20.2745 8.5455 20.882 9.5445C21.341 10.3545 21.881 11.394 21.881 12.8925C21.881 13.932 21.4759 15.1335 20.9629 16.821L19.748 20.871L15.374 7.803ZM24.3514 7.6815C25.8671 10.4568 26.2397 13.714 25.39 16.7598C24.5403 19.8057 22.5353 22.3996 19.802 23.9895L23.5145 13.2705C24.203 11.5425 24.4325 10.152 24.4325 8.9235C24.4325 8.478 24.4054 8.0595 24.3514 7.6815Z" fill="white"/>
</svg>
